<svg width="512" height="512" viewBox="0 0 512 512" fill="none" xmlns="http://www.w3.org/2000/svg">
<g clip-path="url(#clip0)">
<rect width="512" height="512" fill="white"/>
<rect width="512" height="512" fill="#1A1C1D"/>
<path d="M126.08 240.8V256H55.84V242.08L100.48 190.24H56.8V175.2H124.32V188.8L79.52 240.8H126.08ZM144.699 175.2H164.539V256H144.699V175.2ZM165.659 138.56V158.24H143.419V138.56H165.659ZM243.217 256L207.857 218.72V256H188.017V138.24H207.857V210.88L241.137 175.36H265.297L228.977 213.92L268.177 256H243.217ZM351.343 175.2V256H331.823V243.52C329.263 248 325.849 251.413 321.583 253.76C317.316 256.107 312.409 257.28 306.863 257.28C287.129 257.28 277.263 246.187 277.263 224V175.2H297.103V224.16C297.103 230.027 298.276 234.347 300.623 237.12C303.076 239.893 306.809 241.28 311.823 241.28C317.689 241.28 322.383 239.36 325.903 235.52C329.423 231.68 331.183 226.56 331.183 220.16V175.2H351.343Z" fill="url(#paint0_linear)"/>
<path d="M144.792 303.52H176.664V352H164.664V312.544H144.792V352H132.792V312.544H123.48V303.52H132.792V298.624C132.792 294.272 133.464 290.848 134.808 288.352C136.152 285.792 138.328 283.936 141.336 282.784C144.408 281.632 148.568 281.056 153.816 281.056H157.368V289.888H155.064C152.056 289.888 149.848 290.144 148.44 290.656C147.032 291.104 146.072 292.032 145.56 293.44C145.048 294.784 144.792 296.96 144.792 299.968V303.52ZM177.432 281.056V293.152H163.896V281.056H177.432ZM218.326 302.272C229.91 302.272 235.702 308.928 235.702 322.24V352H223.702V322.816C223.702 318.976 222.966 316.192 221.494 314.464C220.022 312.672 217.75 311.776 214.678 311.776C211.03 311.776 208.086 312.96 205.846 315.328C203.606 317.632 202.486 320.704 202.486 324.544V352H190.582V317.248C190.582 312.128 190.326 307.552 189.814 303.52H201.046L201.91 311.488C203.574 308.544 205.814 306.272 208.63 304.672C211.51 303.072 214.742 302.272 218.326 302.272ZM295.753 303.52V352H283.946V344.224C282.474 346.912 280.362 349.024 277.609 350.56C274.857 352.032 271.721 352.768 268.201 352.768C263.977 352.768 260.233 351.744 256.969 349.696C253.705 347.648 251.177 344.736 249.385 340.96C247.593 337.184 246.697 332.8 246.697 327.808C246.697 322.816 247.593 318.4 249.385 314.56C251.241 310.656 253.801 307.648 257.065 305.536C260.329 303.36 264.041 302.272 268.201 302.272C271.721 302.272 274.857 303.04 277.609 304.576C280.362 306.048 282.474 308.128 283.946 310.816V303.52H295.753ZM271.465 343.36C275.433 343.36 278.505 341.984 280.682 339.232C282.858 336.48 283.946 332.608 283.946 327.616C283.946 322.496 282.858 318.56 280.682 315.808C278.505 313.056 275.401 311.68 271.37 311.68C267.401 311.68 264.297 313.12 262.057 316C259.881 318.816 258.793 322.752 258.793 327.808C258.793 332.8 259.881 336.64 262.057 339.328C264.297 342.016 267.433 343.36 271.465 343.36ZM337.527 302.272C349.111 302.272 354.903 308.928 354.903 322.24V352H342.903V322.816C342.903 318.976 342.167 316.192 340.695 314.464C339.223 312.672 336.951 311.776 333.879 311.776C330.231 311.776 327.287 312.96 325.047 315.328C322.807 317.632 321.687 320.704 321.687 324.544V352H309.783V317.248C309.783 312.128 309.527 307.552 309.015 303.52H320.247L321.111 311.488C322.775 308.544 325.015 306.272 327.831 304.672C330.711 303.072 333.943 302.272 337.527 302.272ZM390.571 352.768C385.515 352.768 381.131 351.744 377.419 349.696C373.707 347.648 370.859 344.768 368.875 341.056C366.891 337.28 365.899 332.864 365.899 327.808C365.899 322.752 366.923 318.304 368.971 314.464C371.083 310.624 374.027 307.648 377.803 305.536C381.643 303.36 386.059 302.272 391.051 302.272C394.507 302.272 397.835 302.816 401.035 303.904C404.299 304.992 406.891 306.496 408.811 308.416L405.451 316.864C403.403 315.2 401.227 313.952 398.923 313.12C396.619 312.224 394.347 311.776 392.107 311.776C387.755 311.776 384.363 313.152 381.931 315.904C379.499 318.592 378.283 322.496 378.283 327.616C378.283 332.736 379.467 336.64 381.835 339.328C384.267 342.016 387.691 343.36 392.107 343.36C394.347 343.36 396.619 342.912 398.923 342.016C401.227 341.12 403.403 339.84 405.451 338.176L408.811 346.624C406.763 348.544 404.107 350.048 400.843 351.136C397.579 352.224 394.155 352.768 390.571 352.768ZM460.26 328.384H426.852C427.108 333.568 428.388 337.408 430.692 339.904C433.06 342.336 436.548 343.552 441.156 343.552C446.468 343.552 451.396 341.824 455.94 338.368L459.396 346.624C457.092 348.48 454.244 349.984 450.852 351.136C447.524 352.224 444.132 352.768 440.676 352.768C432.74 352.768 426.5 350.528 421.956 346.048C417.412 341.568 415.14 335.424 415.14 327.616C415.14 322.688 416.132 318.304 418.116 314.464C420.1 310.624 422.884 307.648 426.468 305.536C430.052 303.36 434.116 302.272 438.66 302.272C445.316 302.272 450.564 304.448 454.404 308.8C458.308 313.088 460.26 319.008 460.26 326.56V328.384ZM438.948 310.912C435.748 310.912 433.124 311.872 431.076 313.792C429.092 315.648 427.812 318.368 427.236 321.952H449.796C449.412 318.304 448.292 315.552 446.436 313.696C444.644 311.84 442.148 310.912 438.948 310.912Z" fill="white" fill-opacity="0.9"/>
</g>
<defs>
<linearGradient id="paint0_linear" x1="-16.5573" y1="313" x2="507.35" y2="313" gradientUnits="userSpaceOnUse">
<stop stop-color="#99FFC3"/>
<stop offset="0.453125" stop-color="#12D8FA"/>
<stop offset="1" stop-color="#1FA2FF"/>
</linearGradient>
<clipPath id="clip0">
<rect width="512" height="512" fill="white"/>
</clipPath>
</defs>
</svg>
